<svg height="185" viewBox="0 0 237.271 184.323" width="238" xmlns="http://www.w3.org/2000/svg">
    <path d="m104.314 154.215h30v27h-30z" fill="#5e514a"
          transform="matrix(.99999799 -.00200713 .00200713 .99999799 -.337 .24)"/>
    <rect fill="#4c3f39" height="157" rx="10.926"
          transform="matrix(.99999799 -.00200713 .00200713 .99999799 -.158 .238)" width="237" x=".135" y=".216"/>
    <rect fill="#5e514a" height="145" rx="6" transform="matrix(.99999799 -.00200713 .00200713 .99999799 -.158 .238)"
          width="225" x="6.135" y="6.216"/>
    <path d="m100.963 6.246-94.806 86.601-.028-14.768 74.294-71.784z" fill="#f7f5ed" opacity=".35"/>
    <path d="m144.784 6.159-138.545 126.557-.042-24.162 105.881-102.323z" fill="#f7f5ed" opacity=".35"/>
    <path d="m75.337 174.215h88c5.519 0 10 4.481 10 10h-108c0-5.519 4.481-10 10-10z" fill="#4c3f39"
          transform="matrix(.99999799 -.00200713 .00200713 .99999799 -.36 .24)"/>
</svg>